<svg xmlns="http://www.w3.org/2000/svg" xmlns:xlink="http://www.w3.org/1999/xlink" xmlns:xodm="http://www.corel.com/coreldraw/odm/2003" width="1920" height="1080" version="1.1" viewBox="0 0 1920 1080" xml:space="preserve" style="shape-rendering:geometricPrecision;text-rendering:geometricPrecision;image-rendering:optimizeQuality;fill-rule:evenodd;clip-rule:evenodd"><defs><style type="text/css">.fil0{fill:gray}</style></defs><g id="Layer_x0020_1"><metadata id="CorelCorpID_0Corel-Layer"/><path d="M1167.81 108.53l-662.69 0c-53.41,0 -96.85,43.42 -96.85,96.9l0 609.05c0,53.42 43.44,96.8 96.85,96.8l662.69 0c53.42,0 96.81,-43.38 96.81,-96.8l0 -609.05c0,-53.48 -43.39,-96.9 -96.81,-96.9zm-205.78 144.12c51.65,0 93.55,41.89 93.55,93.55 0,51.65 -41.9,93.54 -93.55,93.54 -51.67,0 -93.55,-41.89 -93.55,-93.54 0,-51.66 41.88,-93.55 93.55,-93.55zm175.41 569.1l-301 0 -287.59 0c-25.84,0 -37.35,-18.69 -25.7,-41.76l160.55 -317.99c11.63,-23.06 33.8,-25.12 49.5,-4.61l161.44 210.98c15.7,20.52 43.14,22.27 61.31,3.88l39.49 -39.99c18.15,-18.38 44.89,-16.11 59.71,5.05l102.26 146.08c14.78,21.19 5.86,38.36 -19.97,38.36z" class="fil0"/></g></svg>